<svg width="295" height="213" viewBox="0 0 295 213" fill="none" xmlns="http://www.w3.org/2000/svg">
<rect x="52" y="4" width="112" height="112" rx="56" fill="white"/>
<g clip-path="url(#clip0_11_563)">
<mask id="mask0_11_563" style="mask-type:alpha" maskUnits="userSpaceOnUse" x="71" y="22" width="75" height="75">
<path d="M146 22H71V97H146V22Z" fill="white"/>
</mask>
<g mask="url(#mask0_11_563)">
<path fill-rule="evenodd" clip-rule="evenodd" d="M71 82H86V97H71V82ZM101 82H116V97H101V82ZM131 82H146V97H131V82Z" fill="#90E0EF"/>
<path d="M86 67H131V82H86V67Z" fill="#90E0EF"/>
<path fill-rule="evenodd" clip-rule="evenodd" d="M71 52H86V67H71V52ZM101 52H116V67H101V52ZM131 52H146V67H131V52Z" fill="#90E0EF"/>
<path fill-rule="evenodd" clip-rule="evenodd" d="M71 37H86V52H71V37ZM131 37H146V52H131V37Z" fill="#90E0EF"/>
<path d="M71 22H146V37H71V22Z" fill="#90E0EF"/>
</g>
</g>
<rect x="52" y="4" width="112" height="112" rx="56" stroke="#ADE8F4" stroke-width="8"/>
<rect x="54" y="86" width="24" height="24" rx="12" fill="#ADE8F4"/>
<path d="M124.685 93.9453C125.062 92.6454 126.595 92.0877 127.719 92.841L136.84 98.9519C138.2 99.8631 137.949 101.933 136.411 102.493L124.231 106.926C122.693 107.486 121.17 106.062 121.626 104.489L124.685 93.9453Z" fill="white"/>
<g filter="url(#filter0_d_11_563)">
<g clip-path="url(#clip1_11_563)">
<rect x="5.23645" y="143.485" width="273" height="60" rx="12" transform="rotate(-20 5.23645 143.485)" fill="white"/>
<path d="M45.748 165.987L42.5455 167.152L36.0249 157.471L38.7914 156.464L43.042 163.464L41.9638 155.309L45.0911 154.171L49.477 161.122L48.2334 153.027L50.9848 152.026L52.213 163.634L48.9805 164.81L44.6794 157.998L45.748 165.987ZM55.4545 154.383C55.5656 154.127 55.6995 153.902 55.8562 153.709C56.0193 153.502 56.1883 153.327 56.3632 153.184C56.5345 153.031 56.7117 152.91 56.8949 152.82C57.0744 152.721 57.2493 152.64 57.4197 152.578C57.961 152.381 58.4567 152.308 58.9069 152.36C59.3635 152.398 59.7691 152.546 60.1236 152.803C60.4846 153.046 60.8041 153.378 61.0822 153.799C61.3666 154.206 61.6055 154.676 61.7989 155.207L63.3859 159.567L61.0103 160.432L59.4945 156.267C59.4288 156.087 59.3344 155.905 59.2114 155.723C59.0947 155.527 58.9483 155.359 58.7724 155.219C58.5965 155.078 58.3882 154.99 58.1476 154.952C57.9171 154.911 57.6614 154.942 57.3808 155.044C57.0901 155.15 56.8696 155.293 56.7193 155.472C56.569 155.652 56.4683 155.859 56.4174 156.093C56.3728 156.313 56.3656 156.543 56.3957 156.782C56.4322 157.007 56.4888 157.225 56.5654 157.435L58.0484 161.51L55.6879 162.369L51.8135 151.724L54.174 150.865L55.4545 154.383ZM69.8835 157.202L69.4963 156.185C69.4071 156.501 69.2682 156.79 69.0797 157.052C68.8975 157.3 68.6724 157.524 68.4046 157.723C68.1467 157.919 67.8023 158.096 67.3713 158.253C67.0205 158.38 66.6733 158.456 66.3297 158.479C65.9926 158.488 65.6604 158.433 65.3332 158.313C65.0023 158.184 64.7052 157.991 64.4417 157.735C64.1883 157.476 63.985 157.135 63.8318 156.714C63.6676 156.263 63.6287 155.829 63.7152 155.412C63.798 154.984 63.9769 154.618 64.2521 154.314C64.5272 154.009 64.8693 153.749 65.2784 153.532C65.6939 153.301 66.1422 153.098 66.6234 152.923L68.0367 152.409C67.9017 152.038 67.682 151.777 67.3775 151.627C67.0831 151.473 66.7255 151.473 66.3045 151.626C66.0101 151.722 65.7578 151.87 65.5473 152.072C65.3368 152.273 65.2503 152.503 65.2878 152.762L62.8822 153.638C62.7672 153.135 62.7579 152.673 62.8544 152.252C62.9472 151.821 63.1207 151.44 63.3749 151.109C63.6354 150.764 63.9498 150.474 64.3179 150.238C64.6923 149.988 65.1001 149.783 65.5411 149.622C66.2528 149.363 66.8756 149.25 67.4097 149.283C67.9437 149.315 68.4099 149.458 68.8082 149.71C69.2129 149.949 69.5511 150.285 69.8228 150.72C70.1045 151.151 70.3384 151.622 70.5245 152.133L72.0786 156.403L69.8835 157.202ZM68.588 153.877L67.2048 154.38C66.7737 154.537 66.4635 154.729 66.274 154.957C66.0946 155.181 66.0541 155.429 66.1526 155.7C66.2474 155.96 66.4106 156.128 66.6421 156.202C66.8836 156.273 67.1597 156.252 67.4705 156.139C67.691 156.059 67.8905 155.952 68.0691 155.819C68.2541 155.672 68.4012 155.5 68.5105 155.301C68.6298 155.099 68.6981 154.881 68.7153 154.648C68.7289 154.404 68.6865 154.147 68.588 153.877ZM76.9327 152.287C77.1632 152.203 77.3641 152.084 77.5354 151.931C77.7131 151.764 77.8393 151.628 77.9139 151.521L79.224 153.155C79.1174 153.33 78.9803 153.499 78.8127 153.663C78.6514 153.812 78.4765 153.955 78.2879 154.092C78.1057 154.215 77.918 154.323 77.7248 154.416C77.5453 154.516 77.3804 154.593 77.23 154.647C76.2577 155.001 75.4398 155.015 74.7763 154.689C74.1192 154.349 73.6264 153.728 73.2981 152.826L72.1927 149.789L71.0049 150.222L70.2333 148.102L71.4211 147.669L70.6659 145.594L73.0414 144.73L73.7966 146.805L76.1421 145.951L76.9137 148.071L74.5682 148.925L75.4711 151.405C75.5915 151.736 75.7625 152.003 75.984 152.206C76.2119 152.396 76.5281 152.423 76.9327 152.287ZM89.4115 150.094L89.0243 149.078C88.9351 149.394 88.7962 149.683 88.6076 149.944C88.4255 150.192 88.2004 150.416 87.9326 150.616C87.6747 150.812 87.3303 150.988 86.8993 151.145C86.5485 151.273 86.2013 151.348 85.8577 151.371C85.5205 151.38 85.1883 151.325 84.8612 151.206C84.5303 151.076 84.2332 150.884 83.9697 150.628C83.7163 150.368 83.513 150.028 83.3597 149.607C83.1956 149.156 83.1567 148.722 83.2432 148.304C83.326 147.877 83.5049 147.511 83.7801 147.206C84.0552 146.902 84.3973 146.641 84.8064 146.424C85.2219 146.193 85.6702 145.991 86.1513 145.815L87.5646 145.301C87.4297 144.93 87.21 144.67 86.9055 144.519C86.6111 144.365 86.2534 144.365 85.8325 144.518C85.5381 144.614 85.2857 144.763 85.0753 144.964C84.8648 145.166 84.7783 145.396 84.8158 145.655L82.4102 146.53C82.2952 146.027 82.2859 145.565 82.3824 145.144C82.4752 144.713 82.6487 144.332 82.9029 144.001C83.1634 143.657 83.4777 143.366 83.8458 143.13C84.2203 142.88 84.6281 142.675 85.0691 142.515C85.7808 142.255 86.4036 142.142 86.9377 142.175C87.4717 142.208 87.9379 142.35 88.3362 142.602C88.7409 142.841 89.0791 143.178 89.3508 143.612C89.6325 144.043 89.8664 144.514 90.0525 145.026L91.6066 149.296L89.4115 150.094ZM88.116 146.769L86.7327 147.272C86.3017 147.429 85.9915 147.622 85.802 147.85C85.6225 148.074 85.5821 148.321 85.6806 148.592C85.7754 148.853 85.9386 149.02 86.1701 149.095C86.4116 149.166 86.6877 149.145 86.9985 149.032C87.219 148.951 87.4185 148.845 87.5971 148.712C87.782 148.565 87.9292 148.392 88.0385 148.193C88.1578 147.991 88.2261 147.773 88.2433 147.54C88.2569 147.297 88.2145 147.04 88.116 146.769ZM92.9353 140.826C93.0965 140.302 93.3388 139.908 93.6622 139.642C93.992 139.363 94.3724 139.145 94.8034 138.989C94.9338 138.941 95.0609 138.901 95.1848 138.867C95.3151 138.819 95.419 138.793 95.4964 138.787L96.3228 141.058C96.1824 141.109 96.0221 141.167 95.8416 141.233C95.6576 141.288 95.474 141.361 95.2908 141.45C95.114 141.526 94.9427 141.617 94.7769 141.722C94.6175 141.815 94.4872 141.924 94.3861 142.052C94.1547 142.352 94.0372 142.684 94.0337 143.049C94.0365 143.4 94.1218 143.805 94.2897 144.267L95.5921 147.845L93.2316 148.704L90.3476 140.781L92.4676 140.009L92.9353 140.826ZM102.174 143.355C102.485 143.242 102.727 143.097 102.901 142.92C103.071 142.733 103.172 142.526 103.203 142.299L105.609 141.424C105.666 141.925 105.638 142.378 105.524 142.783C105.41 143.187 105.226 143.555 104.972 143.886C104.718 144.217 104.409 144.505 104.044 144.752C103.686 144.984 103.292 145.179 102.861 145.336C101.608 145.792 100.501 145.791 99.5403 145.335C98.586 144.865 97.8699 143.974 97.392 142.661C97.1804 142.079 97.0736 141.505 97.0716 140.938C97.0796 140.368 97.1834 139.842 97.3828 139.361C97.5886 138.866 97.8956 138.431 98.3038 138.055C98.7183 137.666 99.2313 137.36 99.8427 137.137C100.454 136.915 101.03 136.813 101.57 136.832C102.111 136.851 102.605 136.978 103.054 137.212C103.502 137.446 103.894 137.774 104.23 138.197C104.575 138.616 104.85 139.106 105.054 139.667C105.113 139.828 105.159 139.987 105.194 140.144C105.235 140.288 105.271 140.451 105.303 140.632L100.041 142.548C100.22 142.914 100.484 143.187 100.833 143.366C101.192 143.542 101.639 143.538 102.174 143.355ZM102.543 139.832C102.408 139.461 102.162 139.205 101.804 139.063C101.455 138.917 101.051 138.928 100.59 139.096C100.078 139.282 99.745 139.551 99.5893 139.903C99.4299 140.245 99.3972 140.591 99.4912 140.943L102.543 139.832ZM112.809 129.523C113.431 129.297 114.021 129.156 114.58 129.1C115.148 129.041 115.671 129.089 116.147 129.245C116.624 129.401 117.048 129.677 117.42 130.076C117.802 130.47 118.117 131.008 118.365 131.69C118.603 132.341 118.703 132.946 118.668 133.504C118.633 134.061 118.485 134.575 118.224 135.044C117.97 135.5 117.617 135.901 117.164 136.248C116.711 136.594 116.189 136.875 115.598 137.09L113.748 137.763L114.865 140.83L112.414 141.722L108.539 131.077L112.809 129.523ZM114.749 134.947C115.291 134.75 115.677 134.456 115.91 134.065C116.142 133.674 116.175 133.219 116.009 132.701C115.801 132.129 115.498 131.78 115.1 131.652C114.698 131.515 114.191 131.557 113.58 131.78L111.806 132.426L112.96 135.598L114.749 134.947ZM125.195 134.789C125.465 134.69 125.669 134.565 125.807 134.413C125.951 134.247 126.04 134.072 126.076 133.889C126.121 133.702 126.123 133.503 126.08 133.292C126.047 133.077 125.99 132.859 125.91 132.638L124.367 128.399L126.727 127.539L128.32 131.915C128.564 132.586 128.677 133.192 128.658 133.733C128.649 134.269 128.532 134.743 128.307 135.154C128.082 135.565 127.763 135.92 127.349 136.218C126.942 136.503 126.478 136.74 125.957 136.929C125.385 137.137 124.843 137.255 124.331 137.283C123.819 137.31 123.348 137.232 122.918 137.048C122.498 136.86 122.118 136.567 121.78 136.168C121.448 135.755 121.168 135.233 120.938 134.602L119.345 130.226L121.706 129.367L123.249 133.607C123.424 134.088 123.668 134.448 123.982 134.685C124.296 134.923 124.7 134.958 125.195 134.789ZM130.934 126.996C131.095 126.472 131.338 126.077 131.661 125.812C131.991 125.533 132.371 125.315 132.802 125.158C132.933 125.111 133.06 125.07 133.184 125.036C133.314 124.989 133.418 124.962 133.495 124.957L134.322 127.227C134.181 127.278 134.021 127.337 133.84 127.402C133.656 127.458 133.473 127.531 133.29 127.62C133.113 127.696 132.942 127.786 132.776 127.892C132.616 127.984 132.486 128.094 132.385 128.222C132.153 128.521 132.036 128.854 132.032 129.218C132.035 129.569 132.121 129.975 132.288 130.436L133.591 134.014L131.23 134.874L128.346 126.95L130.466 126.179L130.934 126.996ZM140.173 129.525C140.483 129.411 140.726 129.267 140.9 129.09C141.07 128.903 141.171 128.696 141.202 128.469L143.607 127.593C143.665 128.095 143.637 128.548 143.523 128.952C143.409 129.357 143.225 129.725 142.971 130.056C142.717 130.386 142.408 130.675 142.043 130.921C141.685 131.154 141.29 131.348 140.859 131.505C139.607 131.961 138.5 131.961 137.539 131.505C136.585 131.035 135.869 130.143 135.391 128.83C135.179 128.249 135.072 127.675 135.07 127.108C135.078 126.537 135.182 126.012 135.382 125.53C135.587 125.035 135.894 124.6 136.303 124.225C136.717 123.835 137.23 123.529 137.842 123.307C138.453 123.084 139.029 122.983 139.569 123.002C140.11 123.021 140.604 123.147 141.053 123.381C141.501 123.615 141.893 123.944 142.228 124.366C142.574 124.786 142.849 125.276 143.053 125.837C143.112 125.997 143.158 126.156 143.193 126.314C143.234 126.458 143.27 126.621 143.302 126.802L138.04 128.717C138.219 129.084 138.483 129.356 138.832 129.536C139.191 129.712 139.638 129.708 140.173 129.525ZM140.542 126.002C140.407 125.631 140.161 125.374 139.802 125.232C139.454 125.087 139.05 125.098 138.588 125.266C138.077 125.452 137.744 125.721 137.588 126.072C137.429 126.414 137.396 126.761 137.49 127.113L140.542 126.002ZM150.404 121.833C150.55 122.234 150.742 122.607 150.981 122.951C151.22 123.296 151.5 123.58 151.819 123.804C152.149 124.025 152.519 124.168 152.93 124.234C153.346 124.287 153.795 124.226 154.276 124.051C154.897 123.825 155.349 123.507 155.632 123.098C155.924 122.685 156.034 122.208 155.962 121.666L158.323 120.807C158.502 121.457 158.544 122.072 158.449 122.651C158.35 123.221 158.148 123.743 157.844 124.217C157.54 124.691 157.146 125.106 156.663 125.464C156.18 125.821 155.648 126.105 155.067 126.317C154.235 126.62 153.451 126.758 152.714 126.731C151.978 126.703 151.299 126.536 150.676 126.23C150.06 125.909 149.516 125.46 149.045 124.882C148.57 124.295 148.183 123.59 147.884 122.768C147.592 121.966 147.446 121.19 147.446 120.441C147.442 119.682 147.573 118.982 147.839 118.34C148.115 117.695 148.526 117.125 149.072 116.631C149.625 116.123 150.308 115.722 151.12 115.426C151.721 115.207 152.312 115.083 152.891 115.054C153.477 115.011 154.029 115.077 154.547 115.252C155.071 115.413 155.551 115.686 155.986 116.073C156.422 116.459 156.79 116.972 157.091 117.612L154.761 118.46C154.458 118.002 154.07 117.701 153.597 117.555C153.124 117.41 152.577 117.45 151.956 117.676C151.465 117.855 151.081 118.096 150.806 118.401C150.528 118.695 150.333 119.033 150.222 119.414C150.117 119.781 150.084 120.174 150.122 120.591C150.16 121.008 150.254 121.422 150.404 121.833ZM164.706 122.826C164.105 123.045 163.52 123.155 162.954 123.157C162.397 123.155 161.879 123.043 161.401 122.82C160.922 122.597 160.49 122.266 160.103 121.828C159.717 121.39 159.403 120.84 159.162 120.178C158.932 119.547 158.831 118.942 158.859 118.364C158.884 117.776 159.013 117.242 159.246 116.759C159.475 116.267 159.808 115.84 160.243 115.477C160.675 115.104 161.192 114.808 161.793 114.589C162.395 114.37 162.976 114.267 163.536 114.278C164.093 114.28 164.607 114.399 165.079 114.636C165.558 114.859 165.985 115.192 166.362 115.634C166.745 116.062 167.051 116.592 167.281 117.223C167.522 117.885 167.635 118.508 167.621 119.092C167.606 119.676 167.487 120.207 167.264 120.686C167.041 121.164 166.712 121.585 166.276 121.948C165.841 122.311 165.317 122.603 164.706 122.826ZM162.532 116.806C162.231 116.916 161.991 117.066 161.81 117.256C161.636 117.433 161.514 117.642 161.443 117.884C161.368 118.115 161.338 118.359 161.352 118.615C161.372 118.857 161.425 119.099 161.513 119.34C161.612 119.61 161.733 119.85 161.877 120.058C162.031 120.263 162.211 120.431 162.417 120.56C162.619 120.679 162.846 120.756 163.096 120.789C163.353 120.809 163.632 120.765 163.933 120.655C164.234 120.546 164.469 120.398 164.64 120.211C164.82 120.02 164.944 119.816 165.013 119.598C165.091 119.377 165.118 119.14 165.094 118.887C165.071 118.635 165.009 118.373 164.911 118.103C164.823 117.862 164.709 117.643 164.569 117.444C164.425 117.235 164.25 117.066 164.044 116.937C163.844 116.794 163.616 116.712 163.359 116.693C163.108 116.659 162.833 116.697 162.532 116.806ZM169.867 112.894C170.034 112.356 170.281 111.943 170.607 111.654C170.933 111.365 171.282 111.153 171.653 111.018C172.114 110.85 172.548 110.794 172.954 110.851C173.367 110.893 173.765 111.083 174.149 111.42C174.343 110.862 174.614 110.422 174.963 110.102C175.312 109.782 175.712 109.54 176.163 109.376C176.634 109.205 177.058 109.136 177.433 109.169C177.809 109.203 178.148 109.323 178.45 109.531C178.759 109.725 179.028 109.996 179.257 110.344C179.492 110.679 179.694 111.076 179.862 111.537L181.673 116.514L179.312 117.373L177.671 112.863C177.623 112.732 177.56 112.591 177.482 112.438C177.403 112.285 177.299 112.152 177.167 112.041C177.042 111.916 176.887 111.831 176.7 111.786C176.523 111.737 176.314 111.756 176.074 111.843C175.777 111.963 175.567 112.136 175.445 112.362C175.333 112.584 175.289 112.821 175.313 113.074C175.336 113.326 175.39 113.568 175.474 113.798L177.072 118.189L174.712 119.048L173.092 114.597C173.055 114.497 173.003 114.369 172.934 114.212C172.866 114.055 172.764 113.916 172.63 113.795C172.501 113.66 172.348 113.568 172.172 113.519C171.991 113.46 171.776 113.476 171.525 113.567C171.244 113.669 171.039 113.807 170.909 113.979C170.788 114.147 170.719 114.332 170.701 114.531C170.683 114.731 170.702 114.939 170.759 115.157C170.811 115.365 170.873 115.564 170.942 115.754L172.441 119.874L170.081 120.733L167.197 112.81L169.347 112.027L169.867 112.894ZM183.052 108.095C183.23 107.587 183.499 107.171 183.858 106.848C184.227 106.52 184.647 106.271 185.118 106.1C185.66 105.903 186.182 105.826 186.686 105.869C187.186 105.903 187.653 106.046 188.085 106.297C188.523 106.535 188.914 106.875 189.256 107.318C189.596 107.75 189.875 108.268 190.094 108.869C190.316 109.48 190.44 110.071 190.466 110.64C190.502 111.206 190.437 111.729 190.271 112.21C190.112 112.676 189.85 113.095 189.485 113.466C189.127 113.824 188.678 114.101 188.136 114.298C187.084 114.681 186.147 114.681 185.327 114.299L186.761 118.238L184.4 119.097L180.367 108.016L182.577 107.212L183.052 108.095ZM185.26 108.5C184.969 108.606 184.734 108.754 184.553 108.944C184.369 109.125 184.23 109.335 184.135 109.573C184.05 109.809 184.01 110.056 184.014 110.316C184.014 110.565 184.059 110.816 184.151 111.066C184.351 111.617 184.676 112.027 185.126 112.295C185.575 112.563 186.109 112.595 186.728 112.393C187.048 112.276 187.299 112.122 187.479 111.932C187.66 111.741 187.782 111.532 187.847 111.304C187.922 111.073 187.947 110.831 187.923 110.578C187.896 110.316 187.833 110.049 187.734 109.779C187.647 109.538 187.526 109.315 187.372 109.11C187.218 108.905 187.038 108.738 186.832 108.609C186.622 108.469 186.389 108.39 186.132 108.37C185.871 108.34 185.581 108.383 185.26 108.5ZM196.67 111.192C196.069 111.411 195.485 111.521 194.918 111.523C194.361 111.521 193.843 111.409 193.365 111.186C192.886 110.963 192.454 110.632 192.067 110.194C191.681 109.756 191.367 109.206 191.126 108.544C190.896 107.913 190.796 107.308 190.824 106.73C190.848 106.142 190.977 105.607 191.21 105.125C191.44 104.633 191.772 104.206 192.208 103.843C192.639 103.47 193.156 103.174 193.757 102.955C194.359 102.736 194.94 102.633 195.5 102.644C196.057 102.646 196.572 102.765 197.044 103.002C197.522 103.225 197.95 103.558 198.326 104C198.709 104.428 199.015 104.958 199.245 105.589C199.486 106.251 199.599 106.873 199.585 107.458C199.57 108.042 199.452 108.573 199.229 109.052C199.005 109.53 198.676 109.951 198.241 110.314C197.805 110.676 197.282 110.969 196.67 111.192ZM194.496 105.172C194.196 105.282 193.955 105.432 193.775 105.622C193.601 105.799 193.478 106.008 193.407 106.25C193.332 106.481 193.302 106.725 193.316 106.981C193.336 107.223 193.39 107.465 193.477 107.705C193.576 107.976 193.697 108.216 193.841 108.424C193.995 108.629 194.175 108.797 194.381 108.926C194.584 109.045 194.81 109.122 195.061 109.155C195.318 109.175 195.597 109.131 195.897 109.021C196.198 108.912 196.433 108.764 196.604 108.577C196.784 108.386 196.909 108.182 196.977 107.964C197.055 107.743 197.082 107.506 197.059 107.253C197.035 107.001 196.974 106.739 196.875 106.469C196.788 106.228 196.674 106.009 196.533 105.81C196.389 105.601 196.214 105.432 196.008 105.303C195.809 105.16 195.58 105.078 195.323 105.058C195.073 105.025 194.797 105.063 194.496 105.172ZM201.809 101.2C202.021 100.691 202.305 100.287 202.662 99.9868C203.018 99.6869 203.385 99.4626 203.762 99.3139C204.263 99.1315 204.73 99.058 205.163 99.0934C205.602 99.1152 206.005 99.2239 206.371 99.4198C206.79 99.6648 207.14 100.003 207.422 100.434C207.703 100.865 207.948 101.366 208.156 101.937L209.743 106.297L207.367 107.162L205.852 102.997C205.771 102.777 205.673 102.569 205.556 102.373C205.439 102.177 205.295 102.014 205.123 101.883C204.95 101.753 204.753 101.678 204.529 101.657C204.302 101.626 204.049 101.661 203.768 101.764C203.471 101.883 203.244 102.039 203.087 102.233C202.931 102.426 202.832 102.638 202.791 102.868C202.746 103.089 202.739 103.319 202.769 103.557C202.809 103.792 202.87 104.02 202.95 104.241L204.406 108.24L202.045 109.099L199.161 101.176L201.371 100.371L201.809 101.2ZM214.35 102.526C214.66 102.413 214.903 102.268 215.077 102.091C215.247 101.905 215.348 101.698 215.379 101.471L217.784 100.595C217.842 101.096 217.814 101.549 217.7 101.954C217.586 102.359 217.402 102.726 217.148 103.057C216.894 103.388 216.585 103.677 216.22 103.923C215.862 104.155 215.467 104.35 215.036 104.507C213.784 104.963 212.677 104.963 211.716 104.507C210.762 104.037 210.046 103.145 209.568 101.832C209.356 101.251 209.249 100.677 209.247 100.11C209.255 99.5392 209.359 99.0134 209.559 98.5321C209.764 98.0372 210.071 97.602 210.48 97.2264C210.894 96.8371 211.407 96.5313 212.019 96.3087C212.63 96.0862 213.206 95.9844 213.746 96.0034C214.287 96.0223 214.781 96.1489 215.23 96.3829C215.678 96.617 216.07 96.9454 216.405 97.3682C216.751 97.7873 217.026 98.2775 217.23 98.8388C217.289 98.9992 217.335 99.1582 217.37 99.3158C217.411 99.4598 217.447 99.6225 217.479 99.8038L212.217 101.719C212.396 102.085 212.66 102.358 213.009 102.538C213.368 102.713 213.815 102.71 214.35 102.526ZM214.719 99.0036C214.584 98.6327 214.338 98.3763 213.979 98.2342C213.631 98.0885 213.227 98.0995 212.765 98.2674C212.254 98.4534 211.921 98.7224 211.765 99.0742C211.606 99.416 211.573 99.7627 211.667 100.114L214.719 99.0036ZM219.854 94.6317C220.066 94.1231 220.35 93.7189 220.707 93.4189C221.063 93.119 221.43 92.8947 221.807 92.7461C222.308 92.5636 222.775 92.4901 223.208 92.5256C223.647 92.5473 224.05 92.6561 224.416 92.8519C224.835 93.0969 225.185 93.4349 225.467 93.8659C225.748 94.2969 225.993 94.798 226.201 95.3693L227.788 99.7295L225.412 100.594L223.897 96.4294C223.816 96.2089 223.718 96.0007 223.601 95.8048C223.484 95.6089 223.34 95.4458 223.168 95.3156C222.995 95.1853 222.798 95.1097 222.574 95.0888C222.347 95.0579 222.094 95.0935 221.813 95.1957C221.516 95.3151 221.289 95.4715 221.132 95.6647C220.976 95.858 220.877 96.0699 220.836 96.3005C220.791 96.521 220.784 96.7507 220.814 96.9894C220.854 97.2245 220.915 97.4524 220.995 97.6729L222.451 101.672L220.09 102.531L217.206 94.6079L219.416 93.8034L219.854 94.6317ZM232.613 95.6236C232.844 95.5396 233.045 95.4211 233.216 95.268C233.394 95.1011 233.52 94.9644 233.595 94.8578L234.905 96.4923C234.798 96.6673 234.661 96.8364 234.493 96.9995C234.332 97.149 234.157 97.2922 233.969 97.4289C233.786 97.552 233.599 97.6601 233.405 97.7531C233.226 97.8524 233.061 97.9295 232.911 97.9842C231.938 98.3381 231.12 98.352 230.457 98.026C229.8 97.6862 229.307 97.0653 228.979 96.1632L227.873 93.1261L226.686 93.5584L225.914 91.4385L227.102 91.0062L226.347 88.9313L228.722 88.0667L229.477 90.1416L231.823 89.2879L232.594 91.4078L230.249 92.2615L231.152 94.7423C231.272 95.0731 231.443 95.34 231.665 95.5432C231.893 95.7327 232.209 95.7595 232.613 95.6236ZM236.716 89.5162C236.505 89.5928 236.312 89.7027 236.137 89.8458C235.972 89.9853 235.926 90.1553 235.999 90.3557C236.051 90.4961 236.133 90.5967 236.246 90.6578C236.365 90.7051 236.551 90.7169 236.803 90.6931C237.244 90.6575 237.703 90.5926 238.18 90.4986C238.656 90.4046 239.114 90.3685 239.554 90.3902C239.989 90.402 240.392 90.5107 240.762 90.7166C241.132 90.9224 241.424 91.3042 241.639 91.8618C241.807 92.3566 241.852 92.8059 241.772 93.2096C241.702 93.6097 241.55 93.9716 241.315 94.2952C241.091 94.6151 240.8 94.8913 240.442 95.1238C240.08 95.3463 239.704 95.5286 239.313 95.6709C238.882 95.8278 238.44 95.9377 237.986 96.0007C237.532 96.0638 237.097 96.052 236.679 95.9656C236.258 95.8691 235.865 95.6943 235.501 95.441C235.146 95.1841 234.844 94.806 234.594 94.3067L237.03 93.4202C237.188 93.6689 237.412 93.8147 237.7 93.8574C237.994 93.8865 238.307 93.8408 238.637 93.7204C238.848 93.6438 239.039 93.529 239.21 93.3758C239.378 93.2126 239.425 93.0308 239.352 92.8303C239.297 92.68 239.21 92.5811 239.091 92.5338C238.968 92.4764 238.827 92.4482 238.668 92.4492C238.516 92.4364 238.356 92.4492 238.189 92.4876C238.017 92.5159 237.846 92.5442 237.675 92.5725C237.255 92.6346 236.841 92.683 236.433 92.7177C236.033 92.7388 235.654 92.712 235.298 92.6374C234.948 92.5491 234.635 92.4075 234.36 92.2126C234.091 92.004 233.88 91.6892 233.726 91.2682C233.559 90.8071 233.512 90.3815 233.585 89.9915C233.655 89.5914 233.806 89.2414 234.037 88.9415C234.275 88.6279 234.573 88.3549 234.931 88.1224C235.299 87.8863 235.689 87.6934 236.1 87.5438C236.521 87.3906 236.94 87.2948 237.357 87.2564C237.781 87.2043 238.177 87.2307 238.544 87.3353C238.911 87.44 239.252 87.6281 239.567 87.8996C239.877 88.1611 240.139 88.52 240.35 88.9765L238.05 89.8138C237.925 89.5641 237.739 89.4275 237.492 89.4039C237.255 89.3766 236.996 89.4141 236.716 89.5162ZM244.423 89.7076C244.359 89.5946 244.304 89.4898 244.258 89.3933C244.217 89.283 244.179 89.1778 244.143 89.0775C244.043 88.7732 244.012 88.4838 244.048 88.2095C244.081 87.9252 244.148 87.6568 244.249 87.4043C244.346 87.1418 244.466 86.8939 244.608 86.6606C244.757 86.4136 244.887 86.1789 244.999 85.9565C245.111 85.7341 245.193 85.5226 245.245 85.3221C245.303 85.108 245.296 84.9006 245.223 84.7002C245.117 84.4095 244.941 84.2236 244.696 84.1426C244.447 84.0515 244.148 84.0698 243.797 84.1975C243.396 84.3435 243.111 84.5436 242.943 84.7979C242.77 85.0422 242.744 85.3584 242.862 85.7466L240.562 86.5839C240.182 85.5414 240.204 84.6196 240.628 83.8185C241.051 83.0173 241.855 82.4015 243.037 81.971C243.478 81.8104 243.923 81.7055 244.37 81.6562C244.828 81.6032 245.259 81.6336 245.663 81.7474C246.068 81.8612 246.433 82.0688 246.758 82.3704C247.09 82.6583 247.353 83.0678 247.546 83.5991C247.613 83.8132 247.656 84.0246 247.675 84.2333C247.694 84.442 247.685 84.6666 247.648 84.9072C247.61 85.1478 247.538 85.4181 247.432 85.7179C247.322 86.0077 247.172 86.3459 246.984 86.7323C246.812 87.1015 246.67 87.4597 246.558 87.8069C246.442 88.1441 246.462 88.5114 246.618 88.9087L244.423 89.7076ZM245.85 90.0735C246.261 89.924 246.646 89.9202 247.004 90.0623C247.372 90.2007 247.642 90.5054 247.814 90.9765C247.989 91.4577 247.98 91.8696 247.787 92.2123C247.6 92.5413 247.301 92.7806 246.89 92.9302C246.469 93.0834 246.076 93.0959 245.712 92.9675C245.354 92.8254 245.087 92.5138 244.912 92.0327C244.74 91.5616 244.746 91.1565 244.929 90.8174C245.122 90.4747 245.429 90.2268 245.85 90.0735Z" fill="#131313"/>
</g>
</g>
<defs>
<filter id="filter0_d_11_563" x="-2.76355" y="42.114" width="301.057" height="173.753" filterUnits="userSpaceOnUse" color-interpolation-filters="sRGB">
<feFlood flood-opacity="0" result="BackgroundImageFix"/>
<feColorMatrix in="SourceAlpha" type="matrix" values="0 0 0 0 0 0 0 0 0 0 0 0 0 0 0 0 0 0 127 0" result="hardAlpha"/>
<feOffset dx="4" dy="4"/>
<feGaussianBlur stdDeviation="6"/>
<feComposite in2="hardAlpha" operator="out"/>
<feColorMatrix type="matrix" values="0 0 0 0 0.564706 0 0 0 0 0.878431 0 0 0 0 0.937255 0 0 0 0.25 0"/>
<feBlend mode="normal" in2="BackgroundImageFix" result="effect1_dropShadow_11_563"/>
<feBlend mode="normal" in="SourceGraphic" in2="effect1_dropShadow_11_563" result="shape"/>
</filter>
<clipPath id="clip0_11_563">
<rect width="75" height="75" fill="white" transform="translate(71 22)"/>
</clipPath>
<clipPath id="clip1_11_563">
<rect x="5.23645" y="143.485" width="273" height="60" rx="12" transform="rotate(-20 5.23645 143.485)" fill="white"/>
</clipPath>
</defs>
</svg>
