<svg width="36" height="36" viewBox="0 0 25 25" fill="none" xmlns="http://www.w3.org/2000/svg">
<g clip-path="url(#clip0_115_50)">
<path d="M0.208313 0.46463H24.2083V24.4646H0.208313V0.46463Z" fill="#222222"/>
<path d="M12.1898 14.457C13.2982 14.457 14.1967 13.5585 14.1967 12.45C14.1967 11.3416 13.2982 10.4431 12.1898 10.4431C11.0813 10.4431 10.1828 11.3416 10.1828 12.45C10.1828 13.5585 11.0813 14.457 12.1898 14.457Z" fill="#00D8FF"/>
<path d="M12.1897 8.36978C14.8838 8.36978 17.3869 8.75645 19.2738 9.40576C21.5474 10.1884 22.9455 11.3749 22.9455 12.4494C22.9455 13.5689 21.4638 14.8297 19.0224 15.6382C17.1766 16.2497 14.7472 16.5694 12.1897 16.5694C9.56726 16.5694 7.08476 16.2696 5.21774 15.6316C2.85594 14.8244 1.43329 13.5477 1.43329 12.4494C1.43329 11.3835 2.76839 10.2063 5.01014 9.425C6.90435 8.76507 9.4691 8.36978 12.1897 8.36978V8.36978Z" stroke="#00D8FF" stroke-miterlimit="10"/>
<path d="M8.63809 10.4218C9.9838 8.0879 11.5696 6.11277 13.0752 4.80287C14.8891 3.22436 16.6155 2.60622 17.5461 3.14278C18.5157 3.7019 18.8679 5.61534 18.3486 8.13499C17.9559 10.0398 17.0195 12.3035 15.7414 14.5193C14.4315 16.7909 12.9312 18.7919 11.4462 20.0906C9.56729 21.7334 7.75001 22.3277 6.79893 21.7792C5.8757 21.2466 5.52285 19.5023 5.96523 17.1696C6.3393 15.1972 7.27845 12.7783 8.63809 10.4218V10.4218Z" stroke="#00D8FF" stroke-miterlimit="10"/>
<path d="M8.64139 14.524C7.2917 12.192 6.37245 9.83223 5.98909 7.87368C5.52748 5.51388 5.85379 3.7092 6.78366 3.17131C7.75265 2.61021 9.58584 3.26085 11.5092 4.96869C12.9637 6.26002 14.4567 8.20199 15.7381 10.4159C17.0519 12.6855 18.0368 14.9843 18.4195 16.919C18.9044 19.3676 18.5117 21.2386 17.5613 21.7885C16.6387 22.3224 14.9515 21.7573 13.1514 20.2086C11.6313 18.9 10.0043 16.8785 8.64139 14.524V14.524Z" stroke="#00D8FF" stroke-miterlimit="10"/>
</g>
<defs>
<clipPath id="clip0_115_50">
<rect width="24" height="24" fill="white" transform="translate(0.208313 0.46463)"/>
</clipPath>
</defs>
</svg>
