<svg viewBox="0 0 1466 67" fill="none" xmlns="http://www.w3.org/2000/svg">
<path d="M3 58.7576C9.85446 49.7523 29.8466 5.86894 44.1268 4.7254C58.4069 3.58186 69.2598 51.3246 88.6808 51.8964C108.102 52.4682 138.376 7.44131 160.653 8.15603C182.93 8.87074 201.779 54.7553 222.343 56.1847C242.906 57.6141 260.042 15.4461 284.033 16.7326C308.023 18.019 344.009 63.6177 366.286 63.9036C388.563 64.1895 400.559 19.3055 417.695 18.4479C434.831 17.5902 447.112 59.1865 469.103 58.7576C491.095 58.3288 527.081 15.8749 549.643 15.8749C572.206 15.8749 578.489 59.4724 604.479 58.7576C630.469 58.0429 681.02 12.7302 705.582 11.5866C730.144 10.4431 728.716 52.897 751.85 51.8964C774.984 50.8958 816.11 6.29777 844.385 5.58306C872.66 4.86835 894.365 47.1793 921.498 47.6081C948.63 48.037 980.046 7.01249 1007.18 8.15603C1034.31 9.29956 1056.87 52.6111 1084.29 54.4694C1111.71 56.3276 1148.27 21.3067 1171.69 19.3055C1195.1 17.3043 1196.53 45.1781 1224.81 42.4622C1253.08 39.7463 1318.2 2.29539 1341.33 3.0101C1364.47 3.72481 1343.33 42.1763 1363.61 46.7505C1383.89 51.3246 1446.44 33.1709 1463 30.455" stroke="url(#paint0_linear_11_554)" stroke-opacity="0.6" stroke-width="5" stroke-linecap="round" stroke-dasharray="36 20"/>
<defs>
<linearGradient id="paint0_linear_11_554" x1="3" y1="3" x2="1463" y2="3" gradientUnits="userSpaceOnUse">
<stop stop-color="#ADE8F4"/>
<stop offset="1" stop-color="#00B4D8"/>
</linearGradient>
</defs>
</svg>
