<svg width="25" height="24" viewBox="0 0 25 24" fill="none" xmlns="http://www.w3.org/2000/svg">
<g clip-path="url(#clip0_63_562)">
<path d="M24.5 4.55671C23.6174 4.94778 22.6693 5.21202 21.6725 5.33146C22.6894 4.72266 23.4694 3.75653 23.8372 2.60653C22.886 3.17099 21.8321 3.58108 20.7107 3.80093C19.8122 2.84545 18.5333 2.24719 17.1169 2.24719C14.3983 2.24719 12.1935 4.45206 12.1935 7.17275C12.1936 7.5498 12.2362 7.92564 12.3203 8.29319C8.22661 8.08703 4.60005 6.12631 2.1711 3.14773C1.74835 3.87705 1.50519 4.72266 1.50519 5.6232C1.50519 7.33125 2.37514 8.83961 3.69528 9.72222C2.9134 9.69731 2.14878 9.48604 1.46504 9.10598V9.16939C1.46504 11.555 3.16152 13.5453 5.41501 13.9977C4.99216 14.1118 4.55605 14.1694 4.11808 14.1689C3.80706 14.1692 3.49671 14.1402 3.19113 14.0823C3.81792 16.0377 5.63595 17.4625 7.79114 17.5006C6.10521 18.8218 3.98174 19.6092 1.67538 19.6092C1.27795 19.6092 0.885798 19.586 0.5 19.5405C2.67954 20.939 5.26705 21.7528 8.04691 21.7528C17.1053 21.7528 22.0573 14.2503 22.0573 7.74351C22.0573 7.53214 22.052 7.31859 22.0425 7.10721C23.0044 6.41169 23.8394 5.54604 24.4978 4.55986L24.5 4.55671Z" fill="currentColor"/>
</g>
<defs>
<clipPath id="clip0_63_562">
<rect width="24" height="24" fill="white" transform="translate(0.5)"/>
</clipPath>
</defs>
</svg>
