<svg width="36" height="36" viewBox="0 0 36 36" fill="none" xmlns="http://www.w3.org/2000/svg">
<path fill-rule="evenodd" clip-rule="evenodd" d="M1.5 1.5V34.5H34.5V1.5H1.5ZM26.5881 17.25V17.2505C26.9009 17.2515 27.2564 17.2679 27.5238 17.2976C28.6128 17.4181 29.4608 17.8986 30.1823 18.8037C30.5416 19.2546 30.6645 19.4519 30.6383 19.5363C30.6214 19.5907 30.3749 19.7713 29.5912 20.3035C28.8213 20.8263 28.5732 20.9829 28.5156 20.9829C28.4572 20.9829 28.3356 20.8548 28.1602 20.6089C27.8224 20.1354 27.4776 19.9194 26.9444 19.8473C26.3711 19.7696 25.8569 19.9545 25.605 20.3289C25.3897 20.6488 25.3572 21.1636 25.5283 21.5376C25.7265 21.9709 26.0854 22.2104 27.4606 22.8272C29.0466 23.5385 29.8504 24.0254 30.4357 24.6296C31.0661 25.2803 31.3855 26.0317 31.4836 27.0944C31.5315 27.6123 31.473 28.2263 31.3281 28.7254C30.9727 29.949 30.0136 30.8449 28.6079 31.2666C28.2193 31.3831 27.8577 31.4527 27.5001 31.4795C26.9541 31.5206 26.1725 31.498 25.7021 31.4279C24.512 31.2507 23.1686 30.5423 22.4987 29.7391C22.1698 29.3448 21.75 28.696 21.75 28.5818C21.75 28.5268 21.7767 28.4955 21.8824 28.4267C22.196 28.223 23.9928 27.1723 24.0277 27.1723C24.0488 27.1723 24.1426 27.2855 24.2362 27.4237C24.4482 27.7368 24.9694 28.2749 25.2344 28.4544C25.4509 28.601 25.7277 28.7188 26.0563 28.8037C26.2445 28.8517 26.3441 28.8603 26.7548 28.8603C27.1744 28.8601 27.2605 28.8529 27.4482 28.8013C27.9447 28.6646 28.3323 28.3818 28.4965 28.0364C28.5685 27.8871 28.5699 27.8684 28.5699 27.5064V27.131L28.4817 26.9519C28.2679 26.5179 27.8073 26.2202 26.3512 25.575C25.6823 25.2786 24.8631 24.8608 24.5433 24.6529C23.8134 24.1784 23.3075 23.636 22.9755 22.9721C22.6453 22.3119 22.5961 22.0661 22.5953 21.0733C22.5945 20.2962 22.5932 20.3057 22.7505 19.8097C22.8932 19.3596 23.1854 18.8567 23.5079 18.5061C24.1517 17.8062 25.0921 17.3564 26.099 17.2669C26.2278 17.2544 26.4003 17.2496 26.588 17.2501L26.5881 17.25ZM17.9266 18.0001H17.9269C19.8453 18.0011 20.945 18.0078 20.9626 18.0189C20.9959 18.0395 21 18.2069 21 19.2753V20.5078L19.0857 20.5148L17.1715 20.5218V25.9713C17.1715 28.9686 17.1654 31.4387 17.1571 31.4605C17.1436 31.4972 16.9963 31.5 15.7508 31.5H14.3596L14.3452 31.4436C14.3359 31.4127 14.3292 28.9425 14.329 25.9544L14.3285 20.5215L12.4143 20.5146L10.5 20.5077V19.2897C10.5 18.3238 10.5067 18.0651 10.5323 18.0394C10.5586 18.0121 11.5356 18.0051 15.7451 18.0009C16.5567 18.0001 17.2871 17.9998 17.9266 18.0002L17.9266 18.0001Z" fill="#0288D1"/>
</svg>
